<svg id="Layer_1" data-name="Layer 1" xmlns="http://www.w3.org/2000/svg" viewBox="0 0 273.86 59"><defs><style>.cls-1,.cls-3{fill:#00aeef;}.cls-2{fill:#ff0001;}.cls-3{fill-rule:evenodd;}.cls-4{fill:#fff;}</style></defs><path class="cls-1" d="M48,31.61c-.27-.19-.58-.43-.93-.71a4.55,4.55,0,0,1-1-1.1,2.43,2.43,0,0,0-1.66-1.14,4,4,0,0,0-2.08.26,8.58,8.58,0,0,0-2.19,1.25A12.94,12.94,0,0,0,38.26,32a10.51,10.51,0,0,0-1.36,2,3.47,3.47,0,0,0-.46,1.79,3.67,3.67,0,0,0,.62,1.86,4.09,4.09,0,0,0,1.32,1.19,6.91,6.91,0,0,0,1.8.72c.66.18,1.34.34,2,.5a6.09,6.09,0,0,1,1.93.72,3.08,3.08,0,0,1,1,1,1.42,1.42,0,0,1,.21,1,1,1,0,0,1-.55.73,8.67,8.67,0,0,1-2.4.93,8.18,8.18,0,0,1-2,.21,6.4,6.4,0,0,1-1.66-.23c-.49-.14-.93-.28-1.32-.43l-1-.35a.87.87,0,0,0-.64,0q-.36.21-.15.84a3,3,0,0,0,1,1.31A7.55,7.55,0,0,0,38.87,47a8.79,8.79,0,0,0,3.34.51,9.41,9.41,0,0,0,2.08-.25,7.25,7.25,0,0,0,2.06-.77,4.5,4.5,0,0,0,1.49-1.34,2.67,2.67,0,0,0,.4-1.94,5.1,5.1,0,0,0-.83-2.31A4.69,4.69,0,0,0,46,39.57a8,8,0,0,0-1.81-.75,16.06,16.06,0,0,1-1.85-.64,4.37,4.37,0,0,1-2.14-1.5c-.27-.5-.12-1.15.45-2a6.2,6.2,0,0,1,1.29-1.38,6,6,0,0,1,1.26-.73,4.19,4.19,0,0,1,1.13-.31l.83-.12a2.39,2.39,0,0,1,1.07.09c.34.11.65.23.93.35a4.53,4.53,0,0,0,.77.25.7.7,0,0,0,.62-.22c.17-.19.2-.37.09-.52a2.29,2.29,0,0,0-.57-.52"/><path class="cls-1" d="M72.26,46.23a2.43,2.43,0,0,1-1,0,1.08,1.08,0,0,1-.64-.5,2.94,2.94,0,0,1-.39-1.06A12.15,12.15,0,0,1,70,43a11.06,11.06,0,0,0-.31-1.87,9.71,9.71,0,0,0-.58-1.63,5.43,5.43,0,0,0-.81-1.27,3.53,3.53,0,0,0-.94-.82,1.55,1.55,0,0,0-1.4-.1,3.43,3.43,0,0,0-1.24.92,6.26,6.26,0,0,0-1,1.45,8.79,8.79,0,0,0-.62,1.46c-.28.81-.46,1.14-.55,1a8.22,8.22,0,0,1-.36-1.59c-.1-.44-.2-.92-.28-1.41a6.38,6.38,0,0,0-.41-1.39,3.89,3.89,0,0,0-.77-1.21,3.46,3.46,0,0,0-1.39-.85,4,4,0,0,0-1.6-.31,3,3,0,0,0-1.28.3,3.74,3.74,0,0,0-1.05.71,11.1,11.1,0,0,0-.88.93,11.39,11.39,0,0,0-1.16,1.58,4.91,4.91,0,0,0-.37.59,8.38,8.38,0,0,0-.36-2,4.14,4.14,0,0,0-.34-.75,2.54,2.54,0,0,0-.49-.63,2.23,2.23,0,0,0-.67-.44,1.92,1.92,0,0,0-.88-.14c-.17,0-.3.3-.4.8a13.94,13.94,0,0,0-.18,1.88c0,.75,0,1.57,0,2.45s.11,1.73.21,2.53a15.53,15.53,0,0,0,.42,2.08,2.31,2.31,0,0,0,.59,1.15,2.35,2.35,0,0,0,1.09.45,1.88,1.88,0,0,0,1-.09,1.61,1.61,0,0,0,.67-.46,1.08,1.08,0,0,0,.26-.7q0-.39,0-1.29a19.33,19.33,0,0,1,.06-2,13,13,0,0,1,.31-2.08A3.46,3.46,0,0,1,55,38.65a5.12,5.12,0,0,1,1.78-1.49.69.69,0,0,1,1,.38,5.11,5.11,0,0,1,.14.79c0,.37.08.81.13,1.33s.1,1.07.18,1.65.18,1.17.31,1.75A11.09,11.09,0,0,0,59,44.69,3.88,3.88,0,0,0,59.78,46a2.9,2.9,0,0,0,1.27.89,1.36,1.36,0,0,0,1-.12A2.61,2.61,0,0,0,62.9,46a11.14,11.14,0,0,0,.69-1.09,14,14,0,0,0,.62-1.36c.21-.53.4-1,.59-1.42a4.37,4.37,0,0,1,.52-.92q.24-.28.39.18l.3.91c.13.39.29.84.49,1.33a14.54,14.54,0,0,0,.72,1.5,8.28,8.28,0,0,0,1,1.38,5.22,5.22,0,0,0,1.22,1,2.86,2.86,0,0,0,1.5.41,2.66,2.66,0,0,0,1.36-.3,1.49,1.49,0,0,0,.66-.63.58.58,0,0,0,0-.6c-.12-.17-.33-.22-.64-.15"/><path class="cls-1" d="M81.34,42.19q-.23-.11-.48.3c-.16.27-.37.58-.63.94a6.39,6.39,0,0,1-1,1.08,2.89,2.89,0,0,1-1.51.68,1.69,1.69,0,0,1-.78,0,1.42,1.42,0,0,1-.57-.3,1.54,1.54,0,0,1-.37-.47,3.87,3.87,0,0,1-.25-.59,4.94,4.94,0,0,1-.21-1.68,4,4,0,0,0,1.48-.23,6.13,6.13,0,0,0,1.41-.7,5.08,5.08,0,0,0,1.43-1.48A4.37,4.37,0,0,0,80.66,38a3.47,3.47,0,0,0-.09-1.59,2.52,2.52,0,0,0-.79-1.17,2.29,2.29,0,0,0-1.34-.5,8.09,8.09,0,0,0-1.53.15,7.6,7.6,0,0,0-1.51.48,5.56,5.56,0,0,0-1.3.84,4.06,4.06,0,0,0-1,1.22,6.38,6.38,0,0,0-.74,1.55A8.51,8.51,0,0,0,72,40.84a8.93,8.93,0,0,0,0,2,7,7,0,0,0,.52,1.89,5,5,0,0,0,1.06,1.55,4,4,0,0,0,1.68,1,4.74,4.74,0,0,0,2.26.19,4.93,4.93,0,0,0,1.78-.71,4.66,4.66,0,0,0,1.28-1.26,6.44,6.44,0,0,0,.76-1.43,3.19,3.19,0,0,0,.25-1.22c0-.34-.11-.56-.3-.65m-5.82-2.51a4.33,4.33,0,0,1,.21-.66,5.47,5.47,0,0,1,1.42-1.9,2.64,2.64,0,0,1,.8-.41,1.47,1.47,0,0,1,.78,0,1.16,1.16,0,0,1,.1.62,2.39,2.39,0,0,1-.19.7,2.51,2.51,0,0,1-.63.85,6.47,6.47,0,0,1-.92.73,4.3,4.3,0,0,1-.79.38,3.31,3.31,0,0,1-.75.21A1.08,1.08,0,0,1,75.52,39.68Z"/><path class="cls-1" d="M91.46,36.55a2.93,2.93,0,0,0-1.66,0,6.83,6.83,0,0,0-1.5.67,8.73,8.73,0,0,0-1.5,1.17,3.07,3.07,0,0,0-.33-.75,8,8,0,0,0-.56-.77A7.45,7.45,0,0,0,85,36a2.25,2.25,0,0,0-1.3-.53,2.87,2.87,0,0,0-2.08.68c-.21.21-.3.38-.25.5a.44.44,0,0,0,.25.24,1.18,1.18,0,0,0,.34,0l.42,0a1.2,1.2,0,0,1,.52.18,1.17,1.17,0,0,1,.52.59,3.93,3.93,0,0,1,.26,1.13,16.91,16.91,0,0,1,.08,1.75c0,.68,0,1.5,0,2.43a7.82,7.82,0,0,0,.46,3.15,1.41,1.41,0,0,0,1.43.88A1.61,1.61,0,0,0,87,46.22a4.8,4.8,0,0,0,.46-2.5c0-.53,0-1.09.08-1.67a6.15,6.15,0,0,1,.36-1.63,4,4,0,0,1,.82-1.33,2.73,2.73,0,0,1,1.43-.78,2.07,2.07,0,0,0,.81-.36,2.45,2.45,0,0,0,.53-.54,1,1,0,0,0,.2-.53.29.29,0,0,0-.19-.33"/><path class="cls-1" d="M105,46.23c.18-.24.24-.44.17-.6a.38.38,0,0,0-.31-.18,3,3,0,0,1-.57-.11,1.94,1.94,0,0,1-.7-.38,2.6,2.6,0,0,1-.68-1,7.34,7.34,0,0,1-.54-1.9,22.76,22.76,0,0,1-.23-3.16c0-1.39,0-2.78,0-4.16s.08-2.62.1-3.72,0-2,0-2.67-.1-1-.24-1a2,2,0,0,0-.68.21,4,4,0,0,0-.93.59,4,4,0,0,0-.81.93,1.93,1.93,0,0,0-.3,1.19c0,.45,0,1.11,0,2s-.08,1.73-.13,2.61S99,37,98.91,38.11a7.54,7.54,0,0,0-2.09-1,5.51,5.51,0,0,0-.95-.19,3.42,3.42,0,0,0-1,0,3.17,3.17,0,0,0-1.92,1A4.14,4.14,0,0,0,92,39.33a6.19,6.19,0,0,0-.36,1.82A7.89,7.89,0,0,0,91.78,43a6.72,6.72,0,0,0,.55,1.71A4.22,4.22,0,0,0,93.26,46a2.07,2.07,0,0,0,1.25.56,4,4,0,0,0,1.22-.08,5.74,5.74,0,0,0,1.06-.36,5.5,5.5,0,0,0,.91-.55,7.88,7.88,0,0,0,.75-.64,8.26,8.26,0,0,0,1.34-1.81,5.34,5.34,0,0,0,.13,1.39,4.45,4.45,0,0,0,.47,1.21,2.49,2.49,0,0,0,1,1,3,3,0,0,0,2.78.15,2.16,2.16,0,0,0,.8-.62M98.32,40a5,5,0,0,1-.27,1,9.32,9.32,0,0,1-.55,1.16,7.42,7.42,0,0,1-.63,1,5.65,5.65,0,0,1-1.07,1.06.94.94,0,0,1-.77.16c-.12,0-.22-.16-.31-.42a3.86,3.86,0,0,1-.17-1,9.11,9.11,0,0,1,0-1.26,4.81,4.81,0,0,1,.3-1.31,1.48,1.48,0,0,1,.71-.86,2.53,2.53,0,0,1,1-.3,3.39,3.39,0,0,1,1,0,4.18,4.18,0,0,1,.66.15C98.31,39.5,98.35,39.67,98.32,40Z"/><path class="cls-1" d="M105.92,29.89a8.72,8.72,0,0,0,.42.87,6.93,6.93,0,0,0,.49.75,3,3,0,0,0,.49.51,4.63,4.63,0,0,0,.82.5,1.18,1.18,0,0,0,.64.11,1,1,0,0,0,.59-.3,3.62,3.62,0,0,0,.59-.75l.47-.67A7.43,7.43,0,0,0,111,30a2.48,2.48,0,0,0,.29-.79c0-.23-.07-.35-.32-.35a1.38,1.38,0,0,0-.59.09,2.78,2.78,0,0,0-.51.31,5.44,5.44,0,0,0-.51.48c-.18.19-.4.39-.64.6a3.39,3.39,0,0,1-.66-.66c-.23-.3-.47-.6-.71-.89a4.44,4.44,0,0,0-.72-.72.72.72,0,0,0-.7-.14.5.5,0,0,0-.29.4,1.85,1.85,0,0,0,0,.69,5.78,5.78,0,0,0,.27.84"/><path class="cls-1" d="M123,38.53a5.31,5.31,0,0,0-1.84-1.77c-.19-.1-.31-.14-.37-.1l-.32.19a3.61,3.61,0,0,1-.75.31,8.25,8.25,0,0,1-1.66.25,3.18,3.18,0,0,0-2.07.85,4.42,4.42,0,0,0-1.19,1.88,6.06,6.06,0,0,0-.27,2.35,6.18,6.18,0,0,0,.07.62,10.81,10.81,0,0,0-1.11.45c-.43.21-.92.49-1.47.83a3.42,3.42,0,0,0-.8-1.06,2.84,2.84,0,0,0-.83-.49,3,3,0,0,0-.93-.15,8.5,8.5,0,0,0,1.14-.81,7.13,7.13,0,0,0,.93-1,4.1,4.1,0,0,0,.7-1.42,4.29,4.29,0,0,0,.11-1.09,2.56,2.56,0,0,0-.28-1.1,3,3,0,0,0-.84-1,4.78,4.78,0,0,0-1.5-.76,4.47,4.47,0,0,0-1.87-.21,4,4,0,0,0-1.51.47,3.92,3.92,0,0,0-1.11.89,4.27,4.27,0,0,0-.7,1,2.14,2.14,0,0,0-.25,1,.74.74,0,0,0,.24.63.79.79,0,0,0,.71.07A4,4,0,0,0,106,39c.29-.18.6-.39.92-.63a5.1,5.1,0,0,1,.94-.58,2.48,2.48,0,0,1,.93-.25,1.14,1.14,0,0,1,.86.34,1.26,1.26,0,0,1,.51,1,1.61,1.61,0,0,1-.46.92,6.36,6.36,0,0,1-1,.86l-1.22.84a8.65,8.65,0,0,0-1,.83,1,1,0,0,0-.32.86.61.61,0,0,0,.28.5,1.42,1.42,0,0,0,.58.13h.75a2.49,2.49,0,0,1,.83.16,2.2,2.2,0,0,1,.82.55,3.34,3.34,0,0,1,.67,1.23c-.5.42-1,.85-1.53,1.31s-1,.94-1.46,1.44a10.35,10.35,0,0,0-1.21,1.6,7.08,7.08,0,0,0-.82,1.84,9.74,9.74,0,0,0-.49,2.48,3.85,3.85,0,0,0,.24,1.62,2.39,2.39,0,0,0,.73,1,3.63,3.63,0,0,0,1,.52,4,4,0,0,0,1.58.06,5.18,5.18,0,0,0,1.93-.67,6.16,6.16,0,0,0,1.79-1.63A7,7,0,0,0,113,52.49a13.85,13.85,0,0,0,.34-2.64,17,17,0,0,0-.08-2.12,11.32,11.32,0,0,0-.36-1.94,6.79,6.79,0,0,1,.75-.6l.8-.55a4.68,4.68,0,0,1,.44-.27c.06.15.12.3.19.44a4.52,4.52,0,0,0,1.57,1.74,4.24,4.24,0,0,0,2.52.66,3.93,3.93,0,0,0,2.12-.62,5.16,5.16,0,0,0,1.54-1.51,6,6,0,0,0,.87-2.06,5.88,5.88,0,0,0,.06-2.29,6.11,6.11,0,0,0-.84-2.2M110.45,49.41a15.32,15.32,0,0,1-.31,1.89,10.94,10.94,0,0,1-.8,2.33,6.46,6.46,0,0,1-.88,1.44,1.41,1.41,0,0,1-.78.54c-.22,0-.4-.11-.53-.4a3.33,3.33,0,0,1-.14-1.4,5.07,5.07,0,0,1,.61-2,17,17,0,0,1,1.18-2,20.64,20.64,0,0,1,1.65-2.12A9.63,9.63,0,0,1,110.45,49.41Zm10.22-6.3a7.67,7.67,0,0,1-.44,1.4,4.41,4.41,0,0,1-.61,1.06,1.15,1.15,0,0,1-.7.48c-.24,0-.44-.1-.62-.42a4.24,4.24,0,0,1-.4-1.19,11.91,11.91,0,0,1-.19-1.6,13.51,13.51,0,0,1,0-1.68,10.32,10.32,0,0,1,.14-1.4,1.51,1.51,0,0,1,.26-.75,1.25,1.25,0,0,1,1-.43,2.47,2.47,0,0,1,1.23.82,1.9,1.9,0,0,1,.44.9,5.56,5.56,0,0,1,.09,1.32A9.89,9.89,0,0,1,120.67,43.11Z"/><path class="cls-1" d="M163.55,42.5c-.1,0-.24,0-.41.3s-.38.53-.62.84a5.37,5.37,0,0,1-.81.84,1.22,1.22,0,0,1-1,.27,1.5,1.5,0,0,1-1.11-1.25,11.56,11.56,0,0,1-.21-3.17,3.14,3.14,0,0,0-.16-1.46.91.91,0,0,0-.59-.51,1.64,1.64,0,0,0-.76,0,4.75,4.75,0,0,1-.69.13c-.19,0-.32.15-.4.39a3.32,3.32,0,0,0-.15.85,8.3,8.3,0,0,0,0,1c0,.33,0,.6,0,.79a2.3,2.3,0,0,1-.23.81,6.48,6.48,0,0,1-.6,1,5.29,5.29,0,0,1-.81.89,1.35,1.35,0,0,1-.87.39c-.22,0-.41-.23-.56-.69a5.87,5.87,0,0,1-.23-1.63,9.24,9.24,0,0,1,.2-2,4.51,4.51,0,0,1,.72-1.78,2.59,2.59,0,0,1,.83-.75c.33-.19.65-.37,1-.52s.58-.31.82-.45a.91.91,0,0,0,.44-.56c0-.14-.07-.25-.32-.32a2.84,2.84,0,0,0-1-.09,6.33,6.33,0,0,0-1.38.22,5.87,5.87,0,0,0-1.52.62,6.41,6.41,0,0,0-1.44,1.1,4.94,4.94,0,0,0-1.08,1.63,6.72,6.72,0,0,0-.59,2.8,6.48,6.48,0,0,0,.31,1.83,3.32,3.32,0,0,1-.26.28,4.24,4.24,0,0,1-.84.68,2.73,2.73,0,0,1-1,.37,1.91,1.91,0,0,1-1.13-.17,2.65,2.65,0,0,1-1-.67,4.22,4.22,0,0,1-.64-.89,3.39,3.39,0,0,1-.34-.8c-.06-.24-.07-.36,0-.38a4,4,0,0,0,1.2-.6,5,5,0,0,0,1-.93,3.79,3.79,0,0,0,.66-1.1,2.29,2.29,0,0,0,.14-1.15,2.25,2.25,0,0,0-.75-1.51,3.59,3.59,0,0,0-1.5-.69,2.39,2.39,0,0,0-1.4.14,7.88,7.88,0,0,0-1.41.74,7.28,7.28,0,0,0-1.13.93,3.19,3.19,0,0,0-.59.73c.18-.31.44-.77.81-1.39s.72-1.3,1.08-2.07a24.59,24.59,0,0,0,1-2.4,8.71,8.71,0,0,0,.49-2.38,4.05,4.05,0,0,0-.38-2,2.57,2.57,0,0,0-1.61-1.25,2.3,2.3,0,0,0-1.17-.06,2.73,2.73,0,0,0-1.19.55,4.06,4.06,0,0,0-1,1.22,6,6,0,0,0-.66,1.94,13.09,13.09,0,0,0-.21,1.86c0,.83-.09,1.75-.13,2.76s0,2.06-.06,3.15,0,2.13,0,3.1,0,1.81.1,2.53a7.14,7.14,0,0,0,.21,1.48,4.55,4.55,0,0,1-.76.27,1.69,1.69,0,0,1-.92,0,1.27,1.27,0,0,1-.86-.62,3.94,3.94,0,0,1-.47-1.19,9.53,9.53,0,0,1-.23-1.52c-.05-.55-.09-1.1-.13-1.65a14.55,14.55,0,0,0-.2-1.55,4.15,4.15,0,0,0-.38-1.23,3.09,3.09,0,0,0-.9-1.08,1.88,1.88,0,0,0-1-.4,2.5,2.5,0,0,0-1.08.16,3.4,3.4,0,0,0-1,.6,6.73,6.73,0,0,0-.9,1A12.87,12.87,0,0,0,129,40q-.39.65-.72,1.32c0-.88,0-1.67,0-2.36,0-.29,0-.58-.05-.86a7.45,7.45,0,0,0-.09-.77c0-.22-.09-.4-.13-.54s-.1-.21-.17-.21a2,2,0,0,0-.53.09,4.4,4.4,0,0,0-.65.26c-.21.12-.42.25-.62.39a1.68,1.68,0,0,0-.45.48,2.74,2.74,0,0,0-.18.85c-.06.45-.09,1-.12,1.6s0,1.25,0,1.94,0,1.32,0,1.91.05,1.11.09,1.53a1.65,1.65,0,0,0,.17.73,1.33,1.33,0,0,0,.64.26,4.08,4.08,0,0,0,.93.11,3.62,3.62,0,0,0,.89-.11.71.71,0,0,0,.54-.38,2.76,2.76,0,0,0,.13-.81c0-.36.06-.77.12-1.24a8.89,8.89,0,0,1,.35-1.5,6.3,6.3,0,0,1,.8-1.6,6,6,0,0,1,.87-1.08,1,1,0,0,1,.71-.35c.2,0,.37.19.5.52a5.22,5.22,0,0,1,.25,1.5,11.61,11.61,0,0,0,1,4.57,3.44,3.44,0,0,0,2.8,2,3,3,0,0,0,1.74-.22,4.39,4.39,0,0,0,1.27-.84l.14-.14.17.14a1.55,1.55,0,0,0,.89.35,1.14,1.14,0,0,0,.79-.26.91.91,0,0,0,.35-.76c0-.34,0-.8.07-1.37s.07-1.19.11-1.86h.55c.17,0,.36,0,.57,0a4.56,4.56,0,0,0,.64-.14s.07.08.1.29.08.5.14.84a7.06,7.06,0,0,0,.31,1.12,4.69,4.69,0,0,0,.63,1.13,3.45,3.45,0,0,0,2.67,1.43,2.78,2.78,0,0,0,1.49-.26,4.3,4.3,0,0,0,1.23-.89,6.72,6.72,0,0,0,.95-1.23l.12-.24a4.19,4.19,0,0,0,.87.91,2.67,2.67,0,0,0,1.71.57,3.67,3.67,0,0,0,1.53-.4,4.13,4.13,0,0,0,1-.77,3.3,3.3,0,0,0,.72-1.08,4.93,4.93,0,0,0,.83,1.6,3.65,3.65,0,0,0,.52.52,1.92,1.92,0,0,0,.66.36,2.43,2.43,0,0,0,.84.13,2.85,2.85,0,0,0,1-.21,4.24,4.24,0,0,0,1.69-1.1,5.69,5.69,0,0,0,1-1.42,3.8,3.8,0,0,0,.38-1.28c0-.38,0-.59-.13-.65m-22.38-6.41a1.87,1.87,0,0,0-.18.57s0-.18,0-.6,0-.93.06-1.54.06-1.27.13-2a19,19,0,0,1,.25-1.93,6.11,6.11,0,0,1,.43-1.38c.17-.35.4-.47.67-.36s.34.34.35.76a7.14,7.14,0,0,1-.15,1.49,16.9,16.9,0,0,1-.47,1.82c-.2.65-.39,1.24-.59,1.79Zm2.55,4.29a2,2,0,0,0-1,.31,4.83,4.83,0,0,0-1,1,4,4,0,0,1,.47-1.23,4.61,4.61,0,0,1,.82-1,2.83,2.83,0,0,1,1-.62,1.11,1.11,0,0,1,1,.08.94.94,0,0,1,.51.88,1.91,1.91,0,0,1-.72,1.26A1.27,1.27,0,0,0,143.72,40.38Z"/><path class="cls-2" d="M11,6.09c.22,0,.29.18.22.37L7.72,14.2l3.46,9.89a.26.26,0,0,1-.26.37H8.32a.51.51,0,0,1-.47-.32L5.94,18.21l-.45,1.1v4.78a.33.33,0,0,1-.37.37H2.79a.33.33,0,0,1-.37-.37V6.46a.33.33,0,0,1,.37-.37H5.12a.33.33,0,0,1,.37.37V12.1L7.9,6.41a.5.5,0,0,1,.5-.32H11"/><path class="cls-2" d="M20,6.09a.33.33,0,0,1,.37.37V21.33a3.33,3.33,0,0,1-3.31,3.31h-1a3.32,3.32,0,0,1-3.31-3.31V6.46a.33.33,0,0,1,.37-.37h2.33a.33.33,0,0,1,.37.37V21.2a.64.64,0,0,0,.63.63h.21a.64.64,0,0,0,.63-.63V6.46a.33.33,0,0,1,.37-.37H20"/><path class="cls-2" d="M16.15,5.48c-.24,0-.37-.1-.37-.31V1.67c0-.21.13-.32.37-.32h2c.23,0,.34.11.31.32l-.94,3.5a.42.42,0,0,1-.42.31h-.92"/><path class="cls-2" d="M27.33,6.09A3.33,3.33,0,0,1,30.64,9.4v4.27A3.33,3.33,0,0,1,27.33,17H26.1v7.11a.33.33,0,0,1-.37.37H23.4a.33.33,0,0,1-.37-.37V6.46a.33.33,0,0,1,.37-.37h3.93m.24,3.44a.64.64,0,0,0-.63-.63H26.1v5.27h.84a.64.64,0,0,0,.63-.63Z"/><path class="cls-2" d="M38.55,21.39a.33.33,0,0,1,.37.36v2.34a.33.33,0,0,1-.37.37H32.86a.33.33,0,0,1-.37-.37V6.46a.33.33,0,0,1,.37-.37h5.69a.33.33,0,0,1,.37.37V8.79a.33.33,0,0,1-.37.37h-3v3.78h2.6a.33.33,0,0,1,.37.37v2.33a.33.33,0,0,1-.37.37h-2.6v5.38h3"/><path class="cls-2" d="M47.75,21.39a.33.33,0,0,1,.37.36v2.34a.33.33,0,0,1-.37.37h-6a.33.33,0,0,1-.37-.37V6.46a.33.33,0,0,1,.37-.37h2.33a.33.33,0,0,1,.37.37V21.39h3.25"/><path class="cls-2" d="M55.42,21.39a.33.33,0,0,1,.37.36v2.34a.33.33,0,0,1-.37.37H49.73a.34.34,0,0,1-.37-.37V6.46a.34.34,0,0,1,.37-.37h5.69a.33.33,0,0,1,.37.37V8.79a.33.33,0,0,1-.37.37h-3v3.78H55a.33.33,0,0,1,.37.37v2.33A.33.33,0,0,1,55,16h-2.6v5.38h3"/><path class="cls-2" d="M78,21.39a.33.33,0,0,1,.37.36v2.34a.33.33,0,0,1-.37.37H72.35a.33.33,0,0,1-.37-.37V6.46a.33.33,0,0,1,.37-.37H78a.33.33,0,0,1,.37.37V8.79a.33.33,0,0,1-.37.37h-3v3.78h2.6a.33.33,0,0,1,.37.37v2.33a.33.33,0,0,1-.37.37h-2.6v5.38h3"/><path class="cls-2" d="M88.77,24.09c.08.24,0,.37-.26.37H86.12a.55.55,0,0,1-.5-.37l-1.91-6.43v6.8l0-.26a.3.3,0,0,1-.34.26H81a.33.33,0,0,1-.37-.37V6.46A.33.33,0,0,1,81,6.09h3.93A3.33,3.33,0,0,1,88.25,9.4v4.27a3.3,3.3,0,0,1-1.81,2.94l2.33,7.48m-5.06-9.92h.84a.64.64,0,0,0,.63-.63v-4a.64.64,0,0,0-.63-.63h-.84Z"/><path class="cls-2" d="M98.64,6.09c.23,0,.37.13.31.37L95.86,24.09a.41.41,0,0,1-.42.37H93.13a.4.4,0,0,1-.42-.37L89.61,6.46c0-.24.08-.37.32-.37h2.83a.36.36,0,0,1,.39.37l1.08,11.12h.1L95.41,6.46a.37.37,0,0,1,.39-.37h2.84"/><path class="cls-2" d="M106.63,21.39a.33.33,0,0,1,.37.36v2.34a.33.33,0,0,1-.37.37h-5.69a.33.33,0,0,1-.37-.37V6.46a.33.33,0,0,1,.37-.37h5.69a.33.33,0,0,1,.37.37V8.79a.33.33,0,0,1-.37.37h-3v3.78h2.6a.34.34,0,0,1,.37.37v2.33a.34.34,0,0,1-.37.37h-2.6v5.38h3"/><path class="cls-2" d="M117.13,6.09a.33.33,0,0,1,.36.37V24.09a.33.33,0,0,1-.36.37h-1.68a.59.59,0,0,1-.5-.34l-2.78-8.69v8.66a.33.33,0,0,1-.37.37h-2.33a.33.33,0,0,1-.37-.37V6.46a.33.33,0,0,1,.37-.37h1.73a.59.59,0,0,1,.5.34l2.72,8.42V6.46a.33.33,0,0,1,.37-.37h2.34"/><path class="cls-2" d="M127.53,6.09a.27.27,0,0,1,.27.37l-3,10.86v6.77a.33.33,0,0,1-.37.37h-2.36a.34.34,0,0,1-.37-.37V17.32l-3-10.86a.26.26,0,0,1,.26-.37h2.78a.39.39,0,0,1,.42.37l1.05,6.61h.1l1-6.61a.39.39,0,0,1,.42-.37h2.78"/><path class="cls-2" d="M122.68,5.48c-.24,0-.37-.1-.37-.28V1.67c0-.19.13-.29.37-.29h2c.24,0,.34.1.31.29L124,5.2a.38.38,0,0,1-.42.28h-.92"/><path class="cls-2" d="M154.4,5.48c-.24,0-.37-.1-.37-.28V1.67c0-.19.13-.29.37-.29h2c.23,0,.34.1.31.29l-.94,3.53a.39.39,0,0,1-.42.28h-.92"/><path class="cls-2" d="M141.78,6.09c.21,0,.29.18.21.37l-3.52,7.74,3.47,9.89a.27.27,0,0,1-.27.37h-2.59a.53.53,0,0,1-.48-.32l-1.91-5.93-.45,1.1v4.78a.33.33,0,0,1-.37.37h-2.33a.33.33,0,0,1-.37-.37V6.46a.33.33,0,0,1,.37-.37h2.33a.33.33,0,0,1,.37.37V12.1l2.42-5.69a.49.49,0,0,1,.5-.32h2.62"/><path class="cls-2" d="M149.91,21.39a.33.33,0,0,1,.36.36v2.34a.33.33,0,0,1-.36.37h-6a.33.33,0,0,1-.37-.37V6.46a.33.33,0,0,1,.37-.37h2.33a.33.33,0,0,1,.37.37V21.39h3.26"/><path class="cls-2" d="M155.88,6.09h.79a.38.38,0,0,1,.41.37l2,17.63c0,.24-.08.37-.31.37h-2.39a.36.36,0,0,1-.39-.37l-.21-2.83h-1.63l-.21,2.83a.37.37,0,0,1-.39.37h-2.39c-.24,0-.34-.13-.32-.37l2-17.63a.39.39,0,0,1,.42-.37h2.68m-1.55,12.23h1.21l-.5-7.11h-.21Z"/><path class="cls-2" d="M176.87,6.09a.33.33,0,0,1,.37.37V8.79a.33.33,0,0,1-.37.37H175V24.09a.33.33,0,0,1-.37.37h-2.33a.38.38,0,0,1-.37-.37V9.16H170.1a.33.33,0,0,1-.36-.37V6.46a.33.33,0,0,1,.36-.37h6.77"/><path class="cls-2" d="M186.46,21.33a3.33,3.33,0,0,1-3.31,3.31h-1a3.33,3.33,0,0,1-3.31-3.31V9.21a3.32,3.32,0,0,1,3.31-3.3h1a3.32,3.32,0,0,1,3.31,3.3V21.33m-3.07-12a.63.63,0,0,0-.63-.62h-.21a.63.63,0,0,0-.63.62V21.2a.64.64,0,0,0,.63.63h.21a.64.64,0,0,0,.63-.63Z"/><path class="cls-2" d="M197.06,24.09c.08.24,0,.37-.26.37h-2.39a.54.54,0,0,1-.5-.37L192,17.66v6.8l0-.26a.3.3,0,0,1-.34.26h-2.34a.33.33,0,0,1-.36-.37V6.46a.33.33,0,0,1,.36-.37h3.94a3.33,3.33,0,0,1,3.31,3.31v4.27a3.3,3.3,0,0,1-1.81,2.94l2.33,7.48M192,14.17h.84a.64.64,0,0,0,.63-.63v-4a.64.64,0,0,0-.63-.63H192Z"/><path class="cls-2" d="M161.81,2.36a.37.37,0,0,1-.05-.34c0-.08.1-.13.26-.13h1.61a.33.33,0,0,1,.23.1l.79,1.18L165.4,2a.5.5,0,0,1,.24-.1h1.63a.23.23,0,0,1,.24.13.4.4,0,0,1,0,.34L164.86,5.3a.26.26,0,0,1-.21.11h0a.33.33,0,0,1-.21-.11l-2.6-2.94"/><path class="cls-2" d="M63.23,2.36a.37.37,0,0,1,0-.34c0-.08.1-.13.26-.13h1.61a.35.35,0,0,1,.24.1l.78,1.18L66.82,2a.5.5,0,0,1,.24-.1h1.63c.14,0,.21.05.24.13a.37.37,0,0,1,0,.34L66.28,5.3a.26.26,0,0,1-.21.11h0a.33.33,0,0,1-.21-.11l-2.6-2.94"/><path class="cls-2" d="M66.56,5.9a3.33,3.33,0,0,1,3.31,3.31v2.1a.45.45,0,0,1-.34.47l-2.39.37c-.24.08-.34,0-.34-.27V9.34a.64.64,0,0,0-.63-.63H66a.64.64,0,0,0-.63.63V21.21a.64.64,0,0,0,.63.63h.21a.64.64,0,0,0,.63-.63V17.53c0-.23.1-.34.34-.26l2.39.31a.45.45,0,0,1,.34.48v3.28a3.33,3.33,0,0,1-3.31,3.31h-1a3.33,3.33,0,0,1-3.31-3.31V9.21A3.33,3.33,0,0,1,65.56,5.9h1"/><path class="cls-2" d="M165.14,5.9a3.33,3.33,0,0,1,3.31,3.31v1a.45.45,0,0,1-.35.48l-2.38.63c-.24,0-.35,0-.35-.27V9.34a.64.64,0,0,0-.63-.63h-.21a.64.64,0,0,0-.63.63v2.39a1.15,1.15,0,0,0,.4.92l3.44,2.57a2.21,2.21,0,0,1,.71,1.6v4.52a3.33,3.33,0,0,1-3.31,3.31h-1a3.33,3.33,0,0,1-3.31-3.31V18.82a.43.43,0,0,1,.34-.47l2.39-.63c.24-.06.34,0,.34.26v3.23a.64.64,0,0,0,.63.63h.21a.64.64,0,0,0,.63-.63V17.74a1.34,1.34,0,0,0-.42-1.08l-3.38-2.59a2,2,0,0,1-.74-1.71V9.21a3.33,3.33,0,0,1,3.31-3.31h1"/><path class="cls-3" d="M193.87,44.18c10.78-11.43,21.92-20.27,33.65-25.84,9.67-4.57,26.62-8.75,36.49-2.45S273.58,34,265.45,40c-14.73,10.77-37-11.48-71.58,4.14"/><path class="cls-4" d="M225.05,26.63a2.61,2.61,0,0,1,.58-.74,3.39,3.39,0,0,1,.8-.51,4.13,4.13,0,0,1,.92-.3,5.15,5.15,0,0,1,.94-.09,1.38,1.38,0,0,1,.82.31,1.48,1.48,0,0,1,.48.71,2.07,2.07,0,0,1,.06,1,2.78,2.78,0,0,1-.47,1.09,3.34,3.34,0,0,1-.88.91,3.55,3.55,0,0,1-.86.42,2.43,2.43,0,0,1-.9.15,3.2,3.2,0,0,0,.12,1,3.68,3.68,0,0,0,.15.35,1.09,1.09,0,0,0,.23.29.85.85,0,0,0,.35.19,1.11,1.11,0,0,0,.48,0,1.71,1.71,0,0,0,.92-.42,3.51,3.51,0,0,0,.59-.65c.16-.22.29-.42.39-.58s.2-.22.3-.18.17.18.18.39a2.36,2.36,0,0,1-.15.75,4.48,4.48,0,0,1-.47.88,2.92,2.92,0,0,1-1.88,1.2,2.76,2.76,0,0,1-1.37-.12,2.51,2.51,0,0,1-1-.6,3.09,3.09,0,0,1-.65-.95,4.42,4.42,0,0,1-.32-1.16,5.53,5.53,0,0,1,.22-2.39A3.81,3.81,0,0,1,225.05,26.63Zm1.47,1.73a1.91,1.91,0,0,0,.46-.13,2.59,2.59,0,0,0,.48-.23,3.45,3.45,0,0,0,.56-.45,1.57,1.57,0,0,0,.39-.52,1.49,1.49,0,0,0,.12-.43.82.82,0,0,0-.06-.38,1,1,0,0,0-.48,0,1.57,1.57,0,0,0-.49.26,2.18,2.18,0,0,0-.55.6,2.58,2.58,0,0,0-.32.56c-.06.16-.1.3-.13.4A.66.66,0,0,0,226.52,28.36Z"/><path class="cls-4" d="M235.59,27.14a6.72,6.72,0,0,1,.69.22l.65.27a.72.72,0,0,1,.28.3.47.47,0,0,1,0,.35.51.51,0,0,1-.19.29.5.5,0,0,1-.34.12l-1.59.15-1.58.17a2.34,2.34,0,0,1-.83-.08l-.8-.3a.64.64,0,0,1-.27-.33.71.71,0,0,1,0-.35.77.77,0,0,1,.12-.31.51.51,0,0,1,.18-.18,1.62,1.62,0,0,1,.61-.16c.33-.05.7-.1,1.11-.13l1.17-.06A4.3,4.3,0,0,1,235.59,27.14Z"/><path class="cls-4" d="M242.19,25c0,.09,0,.15,0,.2a.7.7,0,0,1-.23.14l-.34.18a1.18,1.18,0,0,0-.36.29,1.39,1.39,0,0,0-.29.49,2.05,2.05,0,0,0-.12.76,1.77,1.77,0,0,0,.21.89,5.26,5.26,0,0,0,.56.83,10.67,10.67,0,0,0,.73.79,8.58,8.58,0,0,1,.71.79,3.76,3.76,0,0,1,.5.82,1.6,1.6,0,0,1,.12.86,1.19,1.19,0,0,1-.5.76,3.2,3.2,0,0,1-1,.47,5.3,5.3,0,0,1-1.3.18,5.42,5.42,0,0,1-1.3-.12,3.26,3.26,0,0,1-1.06-.41,1.22,1.22,0,0,1-.55-.73,2.59,2.59,0,0,1-.1-1.1,1.85,1.85,0,0,1,.26-.73,1.6,1.6,0,0,1,.43-.46,3,3,0,0,1,.41-.26q.36-.21.48,0c.08.14,0,.35-.15.65a.66.66,0,0,0-.06.5,1.13,1.13,0,0,0,.29.52,2.07,2.07,0,0,0,.59.42,2,2,0,0,0,.81.19,1.94,1.94,0,0,0,.58-.06,1.18,1.18,0,0,0,.48-.22.59.59,0,0,0,.23-.36.61.61,0,0,0-.17-.49,4.3,4.3,0,0,0-.71-.68c-.34-.27-.68-.57-1-.91a7.14,7.14,0,0,1-.93-1.06,1.9,1.9,0,0,1-.4-1.13,2.65,2.65,0,0,1,.4-1.64,2,2,0,0,1,1.31-.68,3.64,3.64,0,0,1,.72-.08,1.36,1.36,0,0,1,.46.08.55.55,0,0,1,.24.15A.91.91,0,0,1,242.19,25Z"/><path class="cls-4" d="M244.1,30.92c0-.34,0-.83,0-1.45s0-1.31,0-2,0-1.49,0-2.27.06-1.48.12-2.12a10.71,10.71,0,0,1,.25-1.62c.1-.43.24-.68.41-.74a1.33,1.33,0,0,1,.88,0,2.32,2.32,0,0,1,.78.44,2.81,2.81,0,0,1,.58.66,1.67,1.67,0,0,1,.26.67,4.64,4.64,0,0,1,0,1.78,7,7,0,0,1-.47,1.45,11.53,11.53,0,0,1-.63,1.22,4.6,4.6,0,0,0-.48,1.08,4.66,4.66,0,0,1,1.33-1.59,2,2,0,0,1,.51-.26,1.49,1.49,0,0,1,.55-.1,1.22,1.22,0,0,1,.59.16,1.8,1.8,0,0,1,.75.72,3.78,3.78,0,0,1,.38,1,7.85,7.85,0,0,1,.15,1.21c0,.43,0,.83.07,1.22a8.74,8.74,0,0,0,.14,1.09,1.68,1.68,0,0,0,.34.8,3.2,3.2,0,0,0,.64.59,1.63,1.63,0,0,0,.46.21l.3,0a.24.24,0,0,1,.19,0,.41.41,0,0,1,.07.11.2.2,0,0,1,0,.11.35.35,0,0,1-.14.12,1.3,1.3,0,0,1-.33.15,2.3,2.3,0,0,1-1.1,0,3.28,3.28,0,0,1-1.43-.65,1.72,1.72,0,0,1-.58-.76,6.69,6.69,0,0,1-.31-1.07,11.74,11.74,0,0,1-.16-1.17c0-.4-.09-.76-.14-1.09a2.94,2.94,0,0,0-.23-.8.5.5,0,0,0-.43-.32.65.65,0,0,0-.51.21,2,2,0,0,0-.38.62,4.82,4.82,0,0,0-.26.88c-.07.33-.13.65-.17,1s-.07.62-.09.91,0,.51-.05.68a.74.74,0,0,1-.19.55.57.57,0,0,1-.4.16,1.48,1.48,0,0,1-.49-.1,1.94,1.94,0,0,1-.41-.22.71.71,0,0,1-.25-.38,3,3,0,0,1-.11-.5A4.32,4.32,0,0,1,244.1,30.92ZM246,25.27c.11-.39.2-.79.29-1.22a5.16,5.16,0,0,0,.11-1.1,3.61,3.61,0,0,0-.13-.82.93.93,0,0,0-.22-.46c-.08-.08-.17-.06-.25,0a1.49,1.49,0,0,0-.21.68,10.6,10.6,0,0,0-.09,1.26c0,.49,0,1,0,1.41s0,1,.07,1.61C245.79,26.13,245.93,25.66,246,25.27Z"/><path class="cls-4" d="M254.83,26.25A3.38,3.38,0,0,1,256,27.34a3.79,3.79,0,0,1,.51,1.34,3.47,3.47,0,0,1,0,1.4,3.55,3.55,0,0,1-.53,1.26,3.09,3.09,0,0,1-.94.93,2.48,2.48,0,0,1-1.3.38,2.63,2.63,0,0,1-1.54-.41,2.71,2.71,0,0,1-1-1.06,3.81,3.81,0,0,1-.22-2.86,2.73,2.73,0,0,1,.73-1.15,2,2,0,0,1,1.26-.52,4.44,4.44,0,0,0,1-.15,2.46,2.46,0,0,0,.46-.19l.19-.12S254.72,26.19,254.83,26.25ZM253,27.63a1.09,1.09,0,0,0-.16.46,6.48,6.48,0,0,0-.08.85,8.84,8.84,0,0,0,0,1c0,.36.07.69.12,1a2.39,2.39,0,0,0,.25.73c.1.19.23.28.38.26a.73.73,0,0,0,.43-.3,3,3,0,0,0,.37-.65,4.71,4.71,0,0,0,.27-.85,5.83,5.83,0,0,0,.12-.91,3,3,0,0,0-.05-.81,1.14,1.14,0,0,0-.27-.55,1.5,1.5,0,0,0-.75-.5A.76.76,0,0,0,253,27.63Z"/><path class="cls-4" d="M257.7,25.35a.36.36,0,0,1,.33-.13.76.76,0,0,1,.38.15,1.69,1.69,0,0,1,.36.3,1.73,1.73,0,0,1,.24.3,1.13,1.13,0,0,1,.14.43c0,.2.06.39.08.57a3.58,3.58,0,0,0,0,.45c0,.12.06.15.11.08l.24-.35a2.78,2.78,0,0,1,.47-.54,2.68,2.68,0,0,1,.71-.48,1.8,1.8,0,0,1,1-.16,2.43,2.43,0,0,1,.78.2,2,2,0,0,1,.68.47,2.24,2.24,0,0,1,.45.77,2.66,2.66,0,0,1,.13,1,3.19,3.19,0,0,1-.23,1.09,2.51,2.51,0,0,1-.56.79,2.73,2.73,0,0,1-.78.52,4.19,4.19,0,0,1-.91.29,3.8,3.8,0,0,1-1.13.13c-.2,0-.28-.13-.23-.3a.45.45,0,0,1,.12-.21,1.46,1.46,0,0,1,.26-.18l.42-.19.57-.27a1.88,1.88,0,0,0,.89-1.14,1.59,1.59,0,0,0,0-.72,1.12,1.12,0,0,0-.42-.63,1,1,0,0,0-1.1-.19,2.17,2.17,0,0,0-.92,1.13,3.67,3.67,0,0,0-.27,1.07c-.06.47-.11,1-.14,1.53s0,1.12,0,1.72v1.66c0,.51,0,1,0,1.36a7.22,7.22,0,0,1,0,.81.49.49,0,0,1-.24.42.64.64,0,0,1-.44,0,1.5,1.5,0,0,1-.52-.21,2.22,2.22,0,0,1-.43-.36,1.48,1.48,0,0,1-.11-.58c0-.34-.06-.77-.08-1.29s0-1.12-.05-1.77,0-1.32,0-2,0-1.35,0-2,0-1.25.05-1.77,0-.95.07-1.29A2,2,0,0,1,257.7,25.35Z"/></svg>