<svg id="Layer_1" data-name="Layer 1" xmlns="http://www.w3.org/2000/svg" viewBox="0 0 24 24"><defs><style>.cls-1{fill:none;stroke:#fff;stroke-linecap:round;stroke-linejoin:round;stroke-width:0.77px;}</style></defs><path class="cls-1" d="M9.29,7.33a2.26,2.26,0,0,0,0-3.21L6.89,1.71a2.28,2.28,0,0,0-3.22,0L2.35,3a3.42,3.42,0,0,0-.43,4.29A52.92,52.92,0,0,0,16.68,22.08,3.42,3.42,0,0,0,21,21.65l1.32-1.32a2.28,2.28,0,0,0,0-3.22l-2.41-2.4a2.26,2.26,0,0,0-3.21,0l-.8.8A54.75,54.75,0,0,1,8.49,8.13Z"/></svg>