<svg id="Layer_1" enable-background="new 0 0 512 512" height="512" viewBox="0 0 512 512" width="512" xmlns="http://www.w3.org/2000/svg"><g><path fill="#FFF" d="m495.548 480h-11.058l-7.053-28.213c-.556-2.226-2.556-3.787-4.851-3.787h-433.172c-2.294 0-4.294 1.561-4.851 3.787l-7.053 28.213h-11.058c-8.615 0-16.028 6.621-16.434 15.226-.433 9.188 6.888 16.774 15.982 16.774h480c9.094 0 16.415-7.586 15.982-16.774-.406-8.605-7.819-15.226-16.434-15.226z"/><path fill="#FFF" d="m216.452 136h23.548v24.672c-98.411 8.158-176 90.846-176 191.328v8c-9.094 0-16.41 7.577-15.982 16.765.4 8.609 7.813 15.235 16.431 15.235h47.551v19c0 2.761 2.239 5 5 5h278c2.761 0 5-2.239 5-5v-19h47.551c8.618 0 16.03-6.626 16.431-15.235.428-9.188-6.888-16.765-15.982-16.765v-8c0-100.482-77.589-183.17-176-191.328v-24.672h23.548c8.615 0 16.028-6.621 16.434-15.226.433-9.188-6.888-16.774-15.982-16.774h-80c-9.094 0-16.415 7.586-15.982 16.774.406 8.605 7.819 15.226 16.434 15.226z"/><path fill="#FFF" d="m16 272h32c8.837 0 16-7.164 16-16s-7.163-16-16-16h-32c-8.837 0-16 7.164-16 16s7.163 16 16 16z"/><path fill="#FFF" d="m464 272h32c8.837 0 16-7.164 16-16s-7.163-16-16-16h-32c-8.837 0-16 7.164-16 16s7.163 16 16 16z"/><path fill="#FFF" d="m97.608 120.236c6.248 6.248 16.379 6.249 22.627 0 6.249-6.249 6.249-16.379 0-22.627l-22.628-22.629c-6.248-6.248-16.379-6.249-22.627 0-6.249 6.249-6.249 16.379 0 22.627z"/><path fill="#FFF" d="m403.078 124.922c4.095 0 8.189-1.563 11.313-4.686l22.628-22.627c6.249-6.249 6.249-16.379 0-22.627-6.247-6.248-16.378-6.248-22.627 0l-22.628 22.627c-10.108 10.107-2.812 27.313 11.314 27.313z"/><path fill="#FFF" d="m256 64c8.837 0 16-7.164 16-16v-32c0-8.836-7.163-16-16-16s-16 7.164-16 16v32c0 8.836 7.163 16 16 16z"/></g></svg>