<svg id="Layer_1" data-name="Layer 1" xmlns="http://www.w3.org/2000/svg" viewBox="0 0 24 24"><defs><style>.cls-1{fill:#fff;}</style></defs><path class="cls-1" d="M12,.63A7.46,7.46,0,0,0,4.55,8.08c0,3.94,6.77,14.62,7.06,15.07a.46.46,0,0,0,.78,0c.29-.45,7.06-11.13,7.06-15.07A7.46,7.46,0,0,0,12,.63ZM12,22c-.61-1-1.86-3-3.09-5.32C6.66,12.56,5.48,9.58,5.48,8.08a6.52,6.52,0,1,1,13,0c0,1.5-1.18,4.48-3.43,8.63C13.86,19,12.61,21,12,22Z"/><path class="cls-1" d="M12,4.16A3.48,3.48,0,0,0,8.48,7.59a3.52,3.52,0,0,0,7,0A3.48,3.48,0,0,0,12,4.16Zm0,5.93a2.56,2.56,0,0,1-2.6-2.5,2.6,2.6,0,0,1,5.2,0A2.56,2.56,0,0,1,12,10.09Z"/></svg>