<svg id="Layer_1" data-name="Layer 1" xmlns="http://www.w3.org/2000/svg" viewBox="0 0 35.41 34.37"><defs><style>.cls-1{fill:none;stroke:#000;stroke-miterlimit:10;stroke-width:1.21px;}</style></defs><rect class="cls-1" x="1.21" y="19.88" width="5.69" height="10.24"/><path class="cls-1" d="M6.9,28.89c15,5,10.2,5.22,27.3-3.33-1.51-1.51-2.71-2.11-4.27-1.66l-6.16,2"/><path class="cls-1" d="M6.9,21h4.55a9.94,9.94,0,0,1,6.25,2.27c1.9,0,2.05,0,4.55,0a1.71,1.71,0,0,1,0,3.42h-8"/><path d="M17.7,2A7.89,7.89,0,1,1,9.82,9.89,7.89,7.89,0,0,1,17.7,2m0-1.21a9.1,9.1,0,1,0,9.1,9.1A9.11,9.11,0,0,0,17.7.79Z"/><path d="M19.61,7.14a2,2,0,0,1,1.87,2.09c0,2-3.78,4.77-3.78,4.77s-3.77-2.74-3.77-4.77A2,2,0,0,1,15.8,7.14c.79,0,1.59.56,1.9,1.85C18,7.7,18.82,7.14,19.61,7.14m0-1.21a2.93,2.93,0,0,0-1.91.72,2.89,2.89,0,0,0-1.9-.72,3.17,3.17,0,0,0-3.08,3.3c0,2.52,3.56,5.23,4.27,5.75l.71.52.72-.52c.71-.52,4.27-3.23,4.27-5.75a3.17,3.17,0,0,0-3.08-3.3Z"/></svg>